<svg id="Component_70_1" data-name="Component 70 – 1" xmlns="http://www.w3.org/2000/svg" xmlns:xlink="http://www.w3.org/1999/xlink" width="8.023" height="12.492" viewBox="0 0 8.023 12.492">
  <defs>
    <clipPath id="clip-path">
      <rect id="Rectangle_3924" data-name="Rectangle 3924" width="8.023" height="12.492" fill="#0c73ff"/>
    </clipPath>
  </defs>
  <g id="Group_6485" data-name="Group 6485" clip-path="url(#clip-path)">
    <path id="Path_40332" data-name="Path 40332" d="M2.561,19.785H2.323c0-.006.016,0,.019-.014L2.3,19.756a.356.356,0,0,1-.048-.019.436.436,0,0,1-.243-.4c0-.163,0-.325,0-.488,0-.058,0-.059-.057-.065-.118-.013-.236-.023-.354-.039-.223-.029-.447-.055-.669-.089-.239-.037-.478-.078-.718-.117a.237.237,0,0,1-.146-.076A.271.271,0,0,1,0,18.276q0-.625,0-1.25,0-4.558,0-9.117a.232.232,0,0,1,.207-.258c.354-.067.71-.121,1.066-.169.075-.01.072-.02.072.064q0,1.654,0,3.308c0,.084,0,.168.01.253a2.426,2.426,0,0,0,.143.662,2.647,2.647,0,0,0,1.481,1.562,2.58,2.58,0,0,0,1.147.2,2.7,2.7,0,0,0,.476-.06,2.6,2.6,0,0,0,1.424-.851,2.574,2.574,0,0,0,.656-1.731c0-1.017,0-2.035,0-3.052q0-.163,0-.326c0-.036,0-.04.038-.036.177.025.354.045.53.076s.375.067.564.1a.237.237,0,0,1,.208.246q0,3.09,0,6.181,0,2.118,0,4.235a.214.214,0,0,1-.012.078.24.24,0,0,1-.2.155l-.285.049c-.26.044-.521.083-.782.117-.225.03-.451.055-.677.078-.039,0-.042.007-.042.047,0,.164,0,.327,0,.491a.448.448,0,0,1-.322.442c-.009,0-.021,0-.021.018H5.442c0-.006.016,0,.019-.014l-.049-.016a.344.344,0,0,1-.048-.02.432.432,0,0,1-.24-.384c-.005-.149,0-.3,0-.448,0-.026-.006-.04-.036-.038-.058,0-.115.01-.173.011-.226.007-.452.014-.678.018-.266,0-.532,0-.8-.009-.165,0-.33-.008-.5-.019-.037,0-.04,0-.04.038,0,.139,0,.278,0,.418a.447.447,0,0,1-.322.445c-.009,0-.021,0-.021.018m1.453-3.8H5.141a.391.391,0,0,0,.218-.066.439.439,0,0,0,.209-.387c0-.3,0-.591,0-.887a.373.373,0,0,0,0-.058.446.446,0,0,0-.444-.379H2.9a.442.442,0,0,0-.438.439q0,.444,0,.887a.754.754,0,0,0,0,.079.45.45,0,0,0,.437.372c.372,0,.743,0,1.115,0M.891,16.44h0q0-.671,0-1.341A.2.2,0,0,0,.768,14.9a.212.212,0,0,0-.234.029.237.237,0,0,0-.08.2q0,1.263,0,2.527c0,.042,0,.083,0,.125a.218.218,0,1,0,.436-.026q0-.661,0-1.323m1.564,1.337c.085,0,.17,0,.255-.006a.219.219,0,0,0,.185-.232.213.213,0,0,0-.2-.2c-.157,0-.315,0-.472,0a.214.214,0,0,0-.21.214.221.221,0,0,0,.195.221c.083.01.166,0,.249.006m3.12-.442h0c-.079,0-.158,0-.237,0a.215.215,0,0,0-.2.276.226.226,0,0,0,.233.164c.137,0,.274,0,.411,0a.26.26,0,0,0,.051-.006.221.221,0,0,0,.179-.243.217.217,0,0,0-.222-.192H5.575m0-.455h0c.07,0,.14,0,.21,0A.21.21,0,0,0,6.01,16.7a.218.218,0,0,0-.2-.257c-.154,0-.309,0-.463,0a.217.217,0,0,0,0,.434h.232m-3.119,0h0c.07,0,.14,0,.21,0a.21.21,0,0,0,.222-.176.218.218,0,0,0-.2-.26c-.154,0-.309,0-.463,0a.217.217,0,0,0,0,.434h.231M.89,14.1c0-.039,0-.077,0-.116a.219.219,0,0,0-.216-.215.216.216,0,0,0-.219.209q0,.125,0,.25a.216.216,0,0,0,.222.2.211.211,0,0,0,.213-.2c0-.043,0-.085,0-.128" transform="translate(0 -7.292)" fill="#0c73ff"/>
    <path id="Path_40333" data-name="Path 40333" d="M77.29,1.93c0,.556,0,1.112,0,1.668a2.209,2.209,0,0,1-.33,1.142,2.128,2.128,0,0,1-.474.549,2.225,2.225,0,0,1-1.113.493,2.089,2.089,0,0,1-.561.01,2.243,2.243,0,0,1-1.94-1.8,2.314,2.314,0,0,1-.044-.454q0-1.669,0-3.339c0-.07,0-.071.069-.078.209-.021.418-.043.627-.06s.4-.031.6-.038L74.7.005c.195-.007.39-.006.585,0,.226,0,.452.011.679.019.145.005.29.013.434.024.163.013.326.024.488.039l.366.037c.031,0,.039.014.039.043q0,.5,0,1.006,0,.38,0,.759M75.06,5.351a1.78,1.78,0,1,0-1.78-1.776,1.782,1.782,0,0,0,1.78,1.776" transform="translate(-71.047 0)" fill="#0c73ff"/>
    <path id="Path_40334" data-name="Path 40334" d="M119.588,301.194h1.06c.058,0,.054,0,.056.053.007.259,0,.518,0,.777,0,.011,0,.022,0,.034s-.011.035-.035.035h-2.159c-.038,0-.042,0-.042-.042q0-.408,0-.817c0-.037,0-.04.043-.04h1.075" transform="translate(-115.574 -293.832)" fill="#0c73ff"/>
    <path id="Path_40335" data-name="Path 40335" d="M110.826,91.358a1.339,1.339,0,1,1-1.337,1.334,1.335,1.335,0,0,1,1.337-1.334m-.221,1.333a.222.222,0,0,0,.229.227.224.224,0,0,0,.184-.108l.31-.467c.046-.069.1-.136.137-.209a.222.222,0,0,0-.131-.317.211.211,0,0,0-.244.084c-.042.06-.079.123-.12.184l-.327.489a.19.19,0,0,0-.039.118" transform="translate(-106.813 -89.125)" fill="#0c73ff"/>
  </g>
</svg>
