<svg id="Component_69_1" data-name="Component 69 – 1" xmlns="http://www.w3.org/2000/svg" xmlns:xlink="http://www.w3.org/1999/xlink" width="11" height="11" viewBox="0 0 11 11">
  <defs>
    <clipPath id="clip-path">
      <rect id="Rectangle_3921" data-name="Rectangle 3921" width="11" height="11" transform="translate(184 279)" fill="#90bdfc" opacity="0.2"/>
    </clipPath>
    <clipPath id="clip-path-2">
      <rect id="Rectangle_3920" data-name="Rectangle 3920" width="10.774" height="9.348" fill="#0c73ff"/>
    </clipPath>
  </defs>
  <g id="Mask_Group_5183" data-name="Mask Group 5183" transform="translate(-184 -279)" clip-path="url(#clip-path)">
    <g id="Group_6458" data-name="Group 6458" transform="translate(184 279.713)">
      <g id="Group_6457" data-name="Group 6457" clip-path="url(#clip-path-2)">
        <path id="Path_40323" data-name="Path 40323" d="M10.774,1.287v3.7l-.017.1a1.374,1.374,0,0,1-.692,1,1.506,1.506,0,0,1-.8.185c-.289,0-.274.035-.274-.269,0-.378,0-.757,0-1.135a.838.838,0,0,0-.852-.842q-2.75,0-5.5,0a.847.847,0,0,0-.825.638,1,1,0,0,0-.024.267c0,.394,0,.788,0,1.182,0,.148-.011.157-.161.158H1.44A1.394,1.394,0,0,1,.007,4.861q-.014-1.72,0-3.44A1.366,1.366,0,0,1,.728.179,1.553,1.553,0,0,1,1.364,0H9.416c.027,0,.053.012.08.014a1.358,1.358,0,0,1,1.06.639,1.542,1.542,0,0,1,.218.634M2.885,2.5c.249,0,.5,0,.748,0a.356.356,0,1,0,0-.712q-.736,0-1.472,0a.343.343,0,0,0-.369.35.346.346,0,0,0,.37.362c.241,0,.483,0,.724,0m3.872.121a.478.478,0,1,0,.012-.957.464.464,0,0,0-.485.472.465.465,0,0,0,.473.485m2.233-.481a.464.464,0,0,0-.482-.475.478.478,0,1,0,.006.957.465.465,0,0,0,.476-.481" transform="translate(0)" fill="#0c73ff"/>
        <path id="Path_40324" data-name="Path 40324" d="M35.709,63.733h-2.7c-.182,0-.183,0-.183-.182q0-.561,0-1.123c0-.179.044-.226.218-.226h5.336c.17,0,.217.048.218.215q0,.579,0,1.158c0,.151-.007.158-.16.158H35.709" transform="translate(-30.319 -57.456)" fill="#0c73ff"/>
        <path id="Path_40325" data-name="Path 40325" d="M20,89.144a2.383,2.383,0,0,1-.646,1.785.416.416,0,0,1-.255.152.385.385,0,0,1-.343-.647,1.685,1.685,0,0,0,.422-.743,2.3,2.3,0,0,0,.057-.614c0-.082,0-.164,0-.245a.383.383,0,0,1,.762,0c.007.113,0,.226,0,.313" transform="translate(-17.222 -81.737)" fill="#0c73ff"/>
        <path id="Path_40326" data-name="Path 40326" d="M105.842,91.085a.353.353,0,0,1-.277-.122,2.334,2.334,0,0,1-.679-1.594c0-.167,0-.335,0-.5a.37.37,0,0,1,.388-.378.375.375,0,0,1,.378.379c.006.19-.005.381.014.572a1.6,1.6,0,0,0,.435.96.429.429,0,0,1,.137.311.378.378,0,0,1-.395.376" transform="translate(-96.881 -81.737)" fill="#0c73ff"/>
        <path id="Path_40327" data-name="Path 40327" d="M52.458,89.6c0-.234,0-.467,0-.7a.39.39,0,0,1,.374-.423.385.385,0,0,1,.4.405q.011.724,0,1.449a.388.388,0,0,1-.4.413.394.394,0,0,1-.381-.43c0-.237,0-.475,0-.713" transform="translate(-48.456 -81.723)" fill="#0c73ff"/>
        <path id="Path_40328" data-name="Path 40328" d="M79.357,89.605c0,.238,0,.475,0,.713a.393.393,0,0,1-.377.422.385.385,0,0,1-.4-.4q-.013-.736,0-1.472a.381.381,0,0,1,.4-.4.39.39,0,0,1,.378.419c0,.237,0,.475,0,.713" transform="translate(-72.579 -81.724)" fill="#0c73ff"/>
      </g>
    </g>
  </g>
</svg>
