<svg id="Component_75_1" data-name="Component 75 – 1" xmlns="http://www.w3.org/2000/svg" xmlns:xlink="http://www.w3.org/1999/xlink" width="11.76" height="11.76" viewBox="0 0 11.76 11.76">
  <defs>
    <clipPath id="clip-path">
      <rect id="Rectangle_3913" data-name="Rectangle 3913" width="11.76" height="11.76" fill="#fff"/>
    </clipPath>
    <clipPath id="clip-path-2">
      <rect id="Rectangle_3914" data-name="Rectangle 3914" width="10.789" height="8.899" fill="#fff"/>
    </clipPath>
  </defs>
  <g id="Mask_Group_5182" data-name="Mask Group 5182" clip-path="url(#clip-path)">
    <g id="Group_6451" data-name="Group 6451" transform="translate(0.114 1.779)">
      <g id="Group_6450" data-name="Group 6450" clip-path="url(#clip-path-2)">
        <path id="Path_40318" data-name="Path 40318" d="M2.7,185.844H.3c-.217,0-.311-.1-.294-.324a2.806,2.806,0,0,1,1.621-2.382.164.164,0,0,1,.22.033,1.724,1.724,0,0,0,2.369.051c.171-.143.17-.141.366-.037a3.028,3.028,0,0,1,1.027.893.169.169,0,0,1,.009.215,2.421,2.421,0,0,0-.352,1.468c.008.081-.038.08-.09.081H2.7" transform="translate(-0.001 -176.945)" fill="#fff"/>
        <path id="Path_40319" data-name="Path 40319" d="M43.617,69.567a2.379,2.379,0,0,1-.8,1.82,1.306,1.306,0,0,1-1.76.032,2.411,2.411,0,0,1-.628-2.794,1.666,1.666,0,0,1,3.055.163,1.875,1.875,0,0,1,.132.778" transform="translate(-38.866 -65.42)" fill="#fff"/>
        <path id="Path_40320" data-name="Path 40320" d="M170.164,193.973h-2.241c-.25,0-.342-.1-.315-.35a2.4,2.4,0,0,1,1.6-2.066.348.348,0,0,1,.323.017,1.305,1.305,0,0,0,1.311-.005.316.316,0,0,1,.288-.022,2.412,2.412,0,0,1,1.593,1.862,2.246,2.246,0,0,1,.029.262.248.248,0,0,1-.278.3h-2.3" transform="translate(-161.96 -185.073)" fill="#fff"/>
        <path id="Path_40321" data-name="Path 40321" d="M187.775,79.979a8.169,8.169,0,0,1-.28,1.629c-.023.086-.061.084-.125.044a2.857,2.857,0,0,0-.531-.258c-.055-.02-.112-.034-.169-.05s-.125.022-.146-.038.049-.081.08-.119a1.721,1.721,0,0,0,.112-2.019,1.22,1.22,0,0,0-.125-.141.224.224,0,0,0-.345-.012,3.757,3.757,0,0,1-1.532.787c-.17.045-.228.111-.222.284a1.8,1.8,0,0,0,.419,1.135c.023.027.069.05.052.092s-.067.022-.1.028a2.05,2.05,0,0,0-.695.283c-.148.085-.148.087-.193-.08a6.413,6.413,0,0,1-.261-1.586,2.006,2.006,0,0,1,1.651-2,2.029,2.029,0,0,1,2.4,1.72c.013.091.01.184.015.307" transform="translate(-177.527 -75.293)" fill="#fff"/>
        <path id="Path_40322" data-name="Path 40322" d="M125.959.007a.814.814,0,0,1,.47.124.149.149,0,0,0,.171,0,.906.906,0,0,1,1.031.059.922.922,0,0,1,.371.956,1.966,1.966,0,0,1-.515.966,4.526,4.526,0,0,1-.8.712.243.243,0,0,1-.3.027,3.508,3.508,0,0,1-1.242-1.344A1.064,1.064,0,0,1,125.1.561a.919.919,0,0,1,.859-.553" transform="translate(-120.799 0)" fill="#fff"/>
      </g>
    </g>
  </g>
</svg>
