<svg xmlns="http://www.w3.org/2000/svg" xmlns:xlink="http://www.w3.org/1999/xlink" width="171.968" height="88.106" viewBox="0 0 171.968 88.106">
  <defs>
    <linearGradient id="linear-gradient" x1="-0.408" y1="-0.542" x2="0.5" y2="1" gradientUnits="objectBoundingBox">
      <stop offset="0" stop-color="#0c73ff"/>
      <stop offset="1" stop-color="#fff"/>
    </linearGradient>
    <linearGradient id="linear-gradient-2" x1="0.5" x2="0.5" y2="1" gradientUnits="objectBoundingBox">
      <stop offset="0" stop-color="#0c73ff"/>
      <stop offset="1" stop-color="#2d5ca8"/>
    </linearGradient>
    <filter id="Path_2" x="0" y="16.15" width="57.717" height="71.956" filterUnits="userSpaceOnUse">
      <feOffset dy="3" input="SourceAlpha"/>
      <feGaussianBlur stdDeviation="3" result="blur"/>
      <feFlood flood-color="#1b5bb4"/>
      <feComposite operator="in" in2="blur"/>
      <feComposite in="SourceGraphic"/>
    </filter>
  </defs>
  <g id="Component_58_1" data-name="Component 58 – 1" transform="translate(9)">
    <g id="Group_6379" data-name="Group 6379" transform="translate(-143.032 -79.854)">
      <g id="Group_6378" data-name="Group 6378" transform="translate(68.015 -300.839)">
        <path id="Path_9" data-name="Path 9" d="M18.815,37.629c10.391,0,35.765-11.649,35.765-11.649S29.206,0,18.815,0a18.815,18.815,0,0,0,0,37.629Z" transform="translate(131.485 394.178) rotate(111)" fill="#fff"/>
        <path id="Path_10" data-name="Path 10" d="M12.1,24.206c6.684,0,23.007-7.493,23.007-7.493S18.787,0,12.1,0a12.1,12.1,0,0,0,0,24.206Z" transform="matrix(-0.259, 0.966, -0.966, -0.259, 120.374, 396.908)" fill="url(#linear-gradient)"/>
        <g id="Group_6" data-name="Group 6" transform="translate(83.562 456.8) rotate(-100)">
          <path id="Path_1" data-name="Path 1" d="M3.595,1,0,1.538,2.373,0Z" transform="translate(41.709 28.923)" fill="#0c73ff" fill-rule="evenodd"/>
          <g transform="matrix(-0.17, 0.98, -0.98, -0.17, 78, -4.06)" filter="url(#Path_2)">
            <path id="Path_2-2" data-name="Path 2" d="M35.618,21.75C14.843,7.906,3.971,8.949,0,10.21A50.9,50.9,0,0,1,5.635,0c13.97,3.192,24,11.162,30.178,17.66a66.159,66.159,0,0,1,4.6,5.386l.867-1.489.334,2.668L43.61,25.9l1.875-4.913.3,6.733,2.909,2.441.519,1.5-1.5-.243-2.851-2.516-2.126-1.876-1.589-1.4-.431-.315-2.5.168,1.173-1.123q-1.934-1.378-3.763-2.6" transform="translate(17.54 76.11) rotate(-100)" fill-rule="evenodd" fill="url(#linear-gradient-2)"/>
          </g>
        </g>
      </g>
      <text id="restige_" data-name="restige " transform="translate(202 91.867)" fill="#fff" font-size="26" font-family="SegoeUI-Bold, Segoe UI" font-weight="700"><tspan x="0" y="28">restige </tspan></text>
      <text id="Travel" transform="translate(202 120.96)" fill="#fff" font-size="25" font-family="Poppins-Light, Poppins" font-weight="300"><tspan x="0" y="26">Travel</tspan></text>
    </g>
  </g>
</svg>
