<svg id="arrow-down-up" xmlns="http://www.w3.org/2000/svg" width="12.541" height="10.612" viewBox="0 0 12.541 10.612">
  <path id="Path_193" data-name="Path 193" d="M24.11,7.875a.483.483,0,0,1,.485.482v8.677a.485.485,0,0,1-.969,0V8.357A.483.483,0,0,1,24.11,7.875Z" transform="translate(-14.946 -6.905)" fill="#0c73ff" fill-rule="evenodd"/>
  <path id="Path_194" data-name="Path 194" d="M12.2,5.765a.482.482,0,0,1,.683,0l2.894,2.894a.483.483,0,0,1-.683.683L12.538,6.788,9.985,9.341A.483.483,0,1,1,9.3,8.658L12.2,5.765ZM3.515,12.517a.482.482,0,0,1,.683,0L6.75,15.07,9.3,12.517a.483.483,0,0,1,.683.683L7.092,16.093a.482.482,0,0,1-.683,0L3.515,13.2a.482.482,0,0,1,0-.683Z" transform="translate(-3.373 -5.623)" fill="#0c73ff" fill-rule="evenodd"/>
  <path id="Path_195" data-name="Path 195" d="M10.61,5.625a.483.483,0,0,1,.485.482v8.677a.485.485,0,0,1-.969,0V6.107A.483.483,0,0,1,10.61,5.625Z" transform="translate(-7.232 -5.624)" fill="#0c73ff" fill-rule="evenodd"/>
</svg>
