<svg id="arrow-left" xmlns="http://www.w3.org/2000/svg" width="19.503" height="11.379" viewBox="0 0 19.503 11.379">
  <path id="Path_191" data-name="Path 191" d="M10.763,10.362a.813.813,0,0,1,0,1.151l-4.3,4.3,4.3,4.3a.814.814,0,1,1-1.151,1.151L4.737,16.388a.813.813,0,0,1,0-1.151l4.875-4.875a.813.813,0,0,1,1.151,0Z" transform="translate(-4.498 -10.123)" fill="#575757" fill-rule="evenodd"/>
  <path id="Path_192" data-name="Path 192" d="M5.625,17.688a.813.813,0,0,1,.813-.813H23.5a.813.813,0,0,1,0,1.625H6.438A.813.813,0,0,1,5.625,17.688Z" transform="translate(-4.811 -11.998)" fill="#575757" fill-rule="evenodd"/>
</svg>
