<svg id="fast-food-sharp" xmlns="http://www.w3.org/2000/svg" width="11.465" height="11.466" viewBox="0 0 11.465 11.466">
  <path id="Path_199" data-name="Path 199" d="M9.915,24.75H5.146l-.979.836-.979-.836H1.125v.573a1.259,1.259,0,0,0,1.129,1.338,1.957,1.957,0,0,0,.41.943,1.628,1.628,0,0,0,1.28.586H7.1a1.626,1.626,0,0,0,1.28-.586,1.962,1.962,0,0,0,.41-.943,1.084,1.084,0,0,0,.836-.445,1.463,1.463,0,0,0,.293-.892Z" transform="translate(-1.125 -16.725)" fill="#f7feff"/>
  <path id="Path_200" data-name="Path 200" d="M3.251,15.814l.915.673.924-.673H9.915v-.191a.957.957,0,0,0-.764-.936,2.175,2.175,0,0,0-.848-1.72,3.088,3.088,0,0,0-1.922-.592H4.66c-1.63,0-2.733.926-2.771,2.312a.957.957,0,0,0-.764.937v.191H3.251Z" transform="translate(-1.125 -8.553)" fill="#f7feff"/>
  <path id="Path_201" data-name="Path 201" d="M20.718,3.036H18.936l.213-.852,1.065-.367-.239-.693L18.495,1.6l-.346,1.433H14.625V3.8h.448l.045.382h.177a3.843,3.843,0,0,1,2.391.753,2.912,2.912,0,0,1,.833,1.016,2.965,2.965,0,0,1,.256.78A1.72,1.72,0,0,1,19.441,8.9a2.293,2.293,0,0,1,.153.821,2.213,2.213,0,0,1-.511,1.432,1.911,1.911,0,0,1-.76.548,2.609,2.609,0,0,1-.443.788c-.028.034-.057.067-.087.1h1.8a.54.54,0,0,0,.6-.549L21.06,3.8H21.5V3.036Z" transform="translate(-10.039 -1.125)" fill="#f7feff"/>
</svg>
