<svg id="fast-food-sharp" xmlns="http://www.w3.org/2000/svg" width="12.701" height="12.703" viewBox="0 0 12.701 12.703">
  <path id="Path_199" data-name="Path 199" d="M10.863,24.75H5.58L4.5,25.676,3.41,24.75H1.125v.635a1.4,1.4,0,0,0,1.251,1.482,2.168,2.168,0,0,0,.454,1.044,1.8,1.8,0,0,0,1.418.649H7.74a1.8,1.8,0,0,0,1.418-.65,2.173,2.173,0,0,0,.454-1.044,1.2,1.2,0,0,0,.926-.493,1.621,1.621,0,0,0,.324-.988Z" transform="translate(-1.125 -15.859)" fill="#2f83f5"/>
  <path id="Path_200" data-name="Path 200" d="M3.48,16.185l1.014.746,1.023-.746h5.345v-.212a1.06,1.06,0,0,0-.847-1.037,2.41,2.41,0,0,0-.94-1.905,3.42,3.42,0,0,0-2.13-.656H5.041c-1.805,0-3.028,1.026-3.069,2.561a1.06,1.06,0,0,0-.847,1.038v.212H3.48Z" transform="translate(-1.125 -8.141)" fill="#2f83f5"/>
  <path id="Path_201" data-name="Path 201" d="M21.375,3.242H19.4l.236-.943,1.18-.406-.265-.767-1.64.529-.383,1.588h-3.9v.847h.5l.049.423h.2a4.257,4.257,0,0,1,2.649.834,3.226,3.226,0,0,1,.923,1.126,3.285,3.285,0,0,1,.284.864,1.905,1.905,0,0,1,.738,2.405,2.54,2.54,0,0,1,.169.91,2.451,2.451,0,0,1-.566,1.586,2.117,2.117,0,0,1-.842.607,2.89,2.89,0,0,1-.49.873c-.031.038-.063.075-.1.11h1.995a.6.6,0,0,0,.662-.609l.963-9.129h.492V3.242Z" transform="translate(-9.544 -1.125)" fill="#2f83f5"/>
</svg>
