<svg id="bxs-buildings" xmlns="http://www.w3.org/2000/svg" width="17.091" height="18.99" viewBox="0 0 17.091 18.99">
  <path id="Path_160" data-name="Path 160" d="M10.5,21h1.9v1.9H10.5Z" transform="translate(-6.702 -9.607)" fill="#fff"/>
  <path id="Path_161" data-name="Path 161" d="M19.692,3H12.1a1.9,1.9,0,0,0-1.9,1.9v5.7H6.4a1.9,1.9,0,0,0-1.9,1.9V21.04a.949.949,0,0,0,.949.949H20.641a.949.949,0,0,0,.949-.949V4.9A1.9,1.9,0,0,0,19.692,3ZM6.4,20.091v-7.6h5.7v7.6ZM14.944,8.7h-1.9V6.8h1.9Zm3.8,7.6h-1.9v-1.9h1.9Zm0-3.8h-1.9V10.6h1.9Zm0-3.8h-1.9V6.8h1.9Z" transform="translate(-4.5 -3)" fill="#fff"/>
</svg>
