<svg id="Component_116_1" data-name="Component 116 – 1" xmlns="http://www.w3.org/2000/svg" xmlns:xlink="http://www.w3.org/1999/xlink" width="18.289" height="18.288" viewBox="0 0 18.289 18.288">
  <defs>
    <clipPath id="clip-path">
      <rect id="Rectangle_3978" data-name="Rectangle 3978" width="18.289" height="18.288" fill="#575757" stroke="#575757" stroke-width="0.2"/>
    </clipPath>
  </defs>
  <g id="Group_36866" data-name="Group 36866" clip-path="url(#clip-path)">
    <path id="Path_40524" data-name="Path 40524" d="M9.146,18.288q-3.806,0-7.611,0A1.448,1.448,0,0,1,.051,17.22a1.425,1.425,0,0,1,1.331-1.8c.208,0,.416-.013.623,0,.167.012.2-.051.2-.207-.005-1.369,0-2.738,0-4.107,0-.107,0-.215.008-.322A2.065,2.065,0,0,1,3.735,8.894a.21.21,0,0,0,.189-.247c-.006-.975,0-1.949,0-2.924A1.2,1.2,0,0,1,4.9,4.4c.079-.024.128-.055.118-.145a.726.726,0,0,1,0-.15.509.509,0,0,0-.326-.629,1.043,1.043,0,0,1-.582-.984A3.218,3.218,0,0,1,4.692.532a1.949,1.949,0,0,1,.25-.294c.318-.312.506-.316.821-.006a3.023,3.023,0,0,1,.8,1.634A2.516,2.516,0,0,1,6.6,2.4a1.2,1.2,0,0,1-.766,1.183c-.111.047-.164.1-.145.219a.3.3,0,0,1,0,.086.471.471,0,0,0,.376.612,1.085,1.085,0,0,1,.717,1.136c0,.975.006,1.949,0,2.924,0,.2.052.27.249.246.218-.026.5.091.64-.049s.036-.41.037-.623c0-.81,0-1.62,0-2.43a1.194,1.194,0,0,1,.975-1.3c.095-.028.129-.074.12-.167a.722.722,0,0,1,0-.15.5.5,0,0,0-.325-.609A1.053,1.053,0,0,1,7.9,2.472,3.121,3.121,0,0,1,8.6.38c.409-.5.677-.507,1.084-.006a3.044,3.044,0,0,1,.7,2.219,1.126,1.126,0,0,1-.751.991c-.111.045-.166.1-.146.217a.3.3,0,0,1,0,.086.471.471,0,0,0,.374.613,1.1,1.1,0,0,1,.721,1.155c0,.96.006,1.921-.005,2.881,0,.212.044.3.269.273a2.338,2.338,0,0,1,.472,0c.156.012.191-.051.19-.2-.006-.968,0-1.935,0-2.9a1.19,1.19,0,0,1,.971-1.3c.094-.028.132-.072.122-.165a.594.594,0,0,1,0-.107.565.565,0,0,0-.34-.668,1.194,1.194,0,0,1-.565-1.314A3.289,3.289,0,0,1,12.329.445c.438-.577.762-.584,1.2-.006a3.071,3.071,0,0,1,.64,2.153,1.129,1.129,0,0,1-.751.991c-.11.044-.17.094-.148.215a.151.151,0,0,1,0,.043c-.035.319-.019.551.393.666a1.016,1.016,0,0,1,.692.951,3.115,3.115,0,0,1,.014.322q0,1.441,0,2.881c0,.108.009.182.139.222a2.059,2.059,0,0,1,1.577,2.111q.007,2.1,0,4.193c0,.192.052.244.24.236a3.326,3.326,0,0,1,.815.019,1.436,1.436,0,0,1-.266,2.844c-.071,0-.143,0-.215,0h-7.5m-.018-2.869h3.354q1.376,0,2.752,0c.108,0,.189.006.188-.15q-.009-1.709,0-3.419c0-.131-.044-.135-.154-.1a1.416,1.416,0,0,0-.52.291,1.854,1.854,0,0,1-2.633-.011,1.2,1.2,0,0,0-1.672.013,1.847,1.847,0,0,1-2.6.01,1.2,1.2,0,0,0-1.719.01,1.839,1.839,0,0,1-2.55.011,1.64,1.64,0,0,0-.509-.312c-.152-.057-.207-.041-.206.145q.013,1.645,0,3.29c0,.178.045.226.225.226,2.014-.007,4.028,0,6.042,0m.016,2.2H16.67c.079,0,.158,0,.236,0a.765.765,0,0,0,.207-1.483,1.231,1.231,0,0,0-.424-.052H1.594a1.843,1.843,0,0,0-.3.022.756.756,0,0,0-.625.673.776.776,0,0,0,.5.794,1.1,1.1,0,0,0,.381.048H9.144m.022-8.137c-1.619,0-3.239,0-4.858,0a1.429,1.429,0,0,0-1.443,1.36c-.011.144.029.2.171.226A1.865,1.865,0,0,1,4,11.555a1.188,1.188,0,0,0,1.684.011,1.851,1.851,0,0,1,2.616,0,1.19,1.19,0,0,0,1.685,0,1.853,1.853,0,0,1,2.6-.008,1.2,1.2,0,0,0,1.718-.009,1.791,1.791,0,0,1,.924-.47c.175-.026.211-.107.192-.272a1.427,1.427,0,0,0-1.478-1.322q-2.386,0-4.772,0M6.127,7.108c0-.465,0-.931,0-1.4,0-.484-.191-.67-.679-.672-.093,0-.186,0-.279,0a.543.543,0,0,0-.582.575c-.006,1.009,0,2.019,0,3.028,0,.119.03.162.155.16q.612-.01,1.224,0c.133,0,.171-.042.169-.172-.006-.508,0-1.016,0-1.525M13.7,7.13c0-.472,0-.945,0-1.417s-.192-.67-.679-.672c-.086,0-.172,0-.258,0a.548.548,0,0,0-.6.6c-.006,1,0,2,0,3.007,0,.12.035.162.158.16.408-.006.816-.008,1.224,0,.136,0,.168-.043.166-.172-.007-.5,0-1,0-1.5m-3.787.01c0-.487,0-.974,0-1.46a.558.558,0,0,0-.626-.639c-.1,0-.2,0-.3,0a.553.553,0,0,0-.615.608c0,1,0,1.99,0,2.985,0,.131.036.174.169.171.4-.008.8-.009,1.2,0,.144,0,.18-.046.178-.183-.007-.494,0-.988,0-1.482m3.6-4.711A2.753,2.753,0,0,0,13.036.9c-.079-.115-.124-.126-.209,0a2.682,2.682,0,0,0-.482,1.55.585.585,0,0,0,.594.581.6.6,0,0,0,.579-.6M5.932,2.31A2.649,2.649,0,0,0,5.46.9c-.081-.121-.127-.12-.209,0A2.7,2.7,0,0,0,4.77,2.425.588.588,0,1,0,5.932,2.31M9.718,2.3A2.665,2.665,0,0,0,9.254.907C9.17.78,9.12.776,9.032.905a2.694,2.694,0,0,0-.474,1.508A.553.553,0,0,0,9.152,3c.4,0,.6-.271.566-.7" transform="translate(0 0)" fill="#575757" stroke="#575757" stroke-width="0.2"/>
  </g>
</svg>
