<svg id="bx-calendar" xmlns="http://www.w3.org/2000/svg" width="12.164" height="13.515" viewBox="0 0 12.164 13.515">
  <path id="Path_172" data-name="Path 172" d="M10.5,16.5h1.352v1.352H10.5Zm0,2.7h1.352v1.352H10.5Zm2.7-2.7h1.352v1.352H13.2Zm0,2.7h1.352v1.352H13.2Zm2.7-2.7h1.352v1.352H15.906Zm0,2.7h1.352v1.352H15.906Z" transform="translate(-7.797 -10.418)"/>
  <path id="Path_173" data-name="Path 173" d="M5.852,16.515h9.461a1.353,1.353,0,0,0,1.352-1.352V5.7a1.353,1.353,0,0,0-1.352-1.352H13.961V3H12.609V4.352H8.555V3H7.2V4.352H5.852A1.353,1.353,0,0,0,4.5,5.7v9.461A1.353,1.353,0,0,0,5.852,16.515Zm9.461-9.461v8.109H5.852V7.055Z" transform="translate(-4.5 -3)"/>
</svg>
