<svg xmlns="http://www.w3.org/2000/svg" width="18.142" height="18.143" viewBox="0 0 18.142 18.143">
  <g id="Component_125_1" data-name="Component 125 – 1" transform="translate(0.563 0.566)">
    <path id="bxs-offer" d="M18.975,11.525l.94-1.625A.852.852,0,0,0,19.6,8.736L17.978,7.8V5.922a.852.852,0,0,0-.852-.852H15.254l-.94-1.626a.858.858,0,0,0-.517-.4.846.846,0,0,0-.647.085l-1.627.941L9.9,3.133a.852.852,0,0,0-1.163.312l-.94,1.626H5.921a.852.852,0,0,0-.852.852V7.795l-1.627.94A.85.85,0,0,0,3.132,9.9l.94,1.626-.94,1.625a.855.855,0,0,0,.31,1.164l1.627.94v1.873a.852.852,0,0,0,.852.852H7.794l.94,1.627a.851.851,0,0,0,1.165.311l1.625-.94,1.627.94a.852.852,0,0,0,1.163-.311l.94-1.627h1.873a.852.852,0,0,0,.852-.852V15.254l1.627-.94a.852.852,0,0,0,.311-1.164ZM9.394,7.258A1.278,1.278,0,1,1,8.115,8.535,1.278,1.278,0,0,1,9.394,7.258Zm.256,8.176L8.287,14.412,13.4,7.6,14.759,8.62Zm4,.341A1.278,1.278,0,1,1,14.931,14.5a1.278,1.278,0,0,1-1.279,1.278Z" transform="translate(-3.017 -3.018)" fill="none" stroke="#575757" stroke-width="1"/>
  </g>
</svg>
