<svg id="Component_121_1" data-name="Component 121 – 1" xmlns="http://www.w3.org/2000/svg" width="18.012" height="18.012" viewBox="0 0 18.012 18.012">
  <path id="bxs-offer" d="M9.472,20.53h0A1.366,1.366,0,0,1,8.3,19.857l-.8-1.379H5.92a1.353,1.353,0,0,1-1.352-1.352V15.542l-1.377-.8A1.359,1.359,0,0,1,2.7,12.9l.8-1.376L2.7,10.149A1.35,1.35,0,0,1,3.193,8.3l1.376-.8V5.922A1.353,1.353,0,0,1,5.921,4.571H7.505l.8-1.376A1.351,1.351,0,0,1,10.147,2.7l1.377.8L12.9,2.7a1.351,1.351,0,0,1,1.846.493l.8,1.377h1.584a1.353,1.353,0,0,1,1.352,1.352V7.507l1.377.8a1.353,1.353,0,0,1,.493,1.847l-.8,1.375.795,1.375a1.352,1.352,0,0,1-.493,1.847l-1.377.8v1.584a1.353,1.353,0,0,1-1.352,1.352H15.542l-.8,1.377a1.352,1.352,0,0,1-1.846.493l-1.377-.8C9.942,20.467,9.708,20.53,9.472,20.53Zm4.181-4.256a1.778,1.778,0,1,1,0-3.556h0a1.778,1.778,0,0,1,0,3.556Zm-3.9-.141L13.3,6.9,15.459,8.52Zm-.356-5.82a1.778,1.778,0,1,1,0-3.556h0a1.778,1.778,0,0,1,0,3.556Z" transform="translate(-2.518 -2.518)" fill="#0c73ff"/>
  <rect id="Rectangle_3893" data-name="Rectangle 3893" width="9.765" height="1.8" transform="matrix(0.616, -0.788, 0.788, 0.616, 5.291, 12.299)" fill="#fff"/>
  <circle id="Ellipse_60" data-name="Ellipse 60" cx="1.5" cy="1.5" r="1.5" transform="translate(4.855 4.866)" fill="#fff"/>
  <circle id="Ellipse_61" data-name="Ellipse 61" cx="1.5" cy="1.5" r="1.5" transform="translate(9.855 10.866)" fill="#fff"/>
</svg>
