<svg id="Component_68_1" data-name="Component 68 – 1" xmlns="http://www.w3.org/2000/svg" xmlns:xlink="http://www.w3.org/1999/xlink" width="14" height="14" viewBox="0 0 14 14">
  <defs>
    <clipPath id="clip-path">
      <rect id="Rectangle_3913" data-name="Rectangle 3913" width="14" height="14" transform="translate(35 298)" fill="#fff"/>
    </clipPath>
    <clipPath id="clip-path-2">
      <rect id="Rectangle_3914" data-name="Rectangle 3914" width="13.476" height="11.116" fill="#fff"/>
    </clipPath>
  </defs>
  <g id="Mask_Group_5182" data-name="Mask Group 5182" transform="translate(-35 -298)" clip-path="url(#clip-path)">
    <g id="Group_6451" data-name="Group 6451" transform="translate(35 299.18)">
      <g id="Group_6450" data-name="Group 6450" clip-path="url(#clip-path-2)">
        <path id="Path_40318" data-name="Path 40318" d="M3.376,186.526H.37c-.272,0-.389-.131-.367-.4a3.505,3.505,0,0,1,2.025-2.975.2.2,0,0,1,.274.042,2.153,2.153,0,0,0,2.959.064c.214-.178.213-.176.457-.047A3.783,3.783,0,0,1,7,184.321a.211.211,0,0,1,.011.268,3.024,3.024,0,0,0-.439,1.834c.01.1-.047.1-.113.1H3.376" transform="translate(-0.001 -175.409)" fill="#fff"/>
        <path id="Path_40319" data-name="Path 40319" d="M44.463,70.032a2.972,2.972,0,0,1-1,2.274,1.632,1.632,0,0,1-2.2.04,3.012,3.012,0,0,1-.784-3.49,2.081,2.081,0,0,1,3.816.2,2.342,2.342,0,0,1,.165.972" transform="translate(-38.528 -64.853)" fill="#fff"/>
        <path id="Path_40320" data-name="Path 40320" d="M170.8,194.583H168c-.312,0-.427-.127-.394-.437a2.993,2.993,0,0,1,1.993-2.58.435.435,0,0,1,.4.021,1.631,1.631,0,0,0,1.637-.007.4.4,0,0,1,.36-.027,3.012,3.012,0,0,1,1.99,2.326,2.809,2.809,0,0,1,.036.328.31.31,0,0,1-.348.376q-1.439,0-2.879,0" transform="translate(-160.554 -183.467)" fill="#fff"/>
        <path id="Path_40321" data-name="Path 40321" d="M188.787,80.492a10.2,10.2,0,0,1-.35,2.035c-.029.107-.076.1-.156.055a3.57,3.57,0,0,0-.664-.322c-.069-.025-.14-.042-.211-.063s-.156.028-.182-.048c-.02-.059.061-.1.1-.149a2.15,2.15,0,0,0,.14-2.522,1.522,1.522,0,0,0-.156-.176.28.28,0,0,0-.431-.016,4.693,4.693,0,0,1-1.914.984c-.213.056-.284.138-.277.354a2.245,2.245,0,0,0,.524,1.418c.029.034.087.063.064.115s-.083.027-.128.034a2.561,2.561,0,0,0-.868.354c-.184.106-.185.109-.241-.1a8.013,8.013,0,0,1-.326-1.981,2.506,2.506,0,0,1,2.062-2.5,2.535,2.535,0,0,1,2.993,2.148c.017.114.012.23.019.383" transform="translate(-175.986 -74.64)" fill="#fff"/>
        <path id="Path_40322" data-name="Path 40322" d="M126.2.009a1.017,1.017,0,0,1,.587.155.186.186,0,0,0,.214,0,1.132,1.132,0,0,1,1.288.074,1.151,1.151,0,0,1,.464,1.194,2.456,2.456,0,0,1-.643,1.207,5.654,5.654,0,0,1-1,.889.3.3,0,0,1-.378.033,4.382,4.382,0,0,1-1.552-1.679A1.329,1.329,0,0,1,125.123.7,1.148,1.148,0,0,1,126.2.009" transform="translate(-119.75 0)" fill="#fff"/>
      </g>
    </g>
  </g>
</svg>
