<svg id="filter" xmlns="http://www.w3.org/2000/svg" width="11.231" height="11.231" viewBox="0 0 11.231 11.231">
  <path id="filter-2" data-name="filter" d="M11.052,15.731H9.18a.936.936,0,0,1-.936-.936V11.243L4.776,7.776a.936.936,0,0,1-.276-.66V5.436A.936.936,0,0,1,5.436,4.5H14.8a.936.936,0,0,1,.936.936v1.68a.936.936,0,0,1-.276.66l-3.468,3.468V14.8A.936.936,0,0,1,11.052,15.731ZM5.436,5.436v1.68L9.18,10.86V14.8h1.872V10.86L14.8,7.116V5.436Z" transform="translate(-4.5 -4.5)" fill="#0c73ff"/>
</svg>
