<svg id="gender-trans" xmlns="http://www.w3.org/2000/svg" width="17.213" height="17.213" viewBox="0 0 17.213 17.213">
  <g id="Group_36817" data-name="Group 36817">
    <path id="Path_40322" data-name="Path 40322" d="M0,.538A.538.538,0,0,1,.538,0H3.765a.538.538,0,0,1,0,1.076H1.836L3.765,3l.695-.7a.539.539,0,0,1,.762.762l-.7.695.884.884a4.3,4.3,0,0,1,6.393,0l3.574-3.574h-3a.538.538,0,0,1,0-1.076h4.3a.538.538,0,0,1,.538.538v4.3a.538.538,0,0,1-1.076,0v-3L12.426,5.548A4.3,4.3,0,0,1,9.144,11.8v2.184h1.614a.538.538,0,0,1,0,1.076H9.144v1.614a.538.538,0,0,1-1.076,0V15.061H6.455a.538.538,0,0,1,0-1.076H8.069V11.8A4.3,4.3,0,0,1,4.787,5.547L3.765,4.526l-.695.7a.539.539,0,1,1-.762-.762L3,3.765,1.076,1.836V3.765A.538.538,0,1,1,0,3.765ZM5.906,5.762a3.228,3.228,0,1,0,4.469-.932,3.228,3.228,0,0,0-4.469.932Z" fill="#56585a" fill-rule="evenodd"/>
  </g>
</svg>
