<svg id="Component_110_1" data-name="Component 110 – 1" xmlns="http://www.w3.org/2000/svg" xmlns:xlink="http://www.w3.org/1999/xlink" width="18.764" height="18.754" viewBox="0 0 18.764 18.754">
  <defs>
    <clipPath id="clip-path">
      <rect id="Rectangle_3966" data-name="Rectangle 3966" width="18.764" height="18.754" fill="#13b263"/>
    </clipPath>
  </defs>
  <g id="Group_6788" data-name="Group 6788" clip-path="url(#clip-path)">
    <path id="Path_40474" data-name="Path 40474" d="M17.215,4.708a9.144,9.144,0,0,1-.355,1.573c-.021.093-.045.185-.063.279a.55.55,0,0,0,.193.568c.257.213.513.428.77.641a3.464,3.464,0,0,1,.751.8,1.4,1.4,0,0,1,0,1.614,3.425,3.425,0,0,1-.736.789c-.252.209-.5.421-.756.626a.58.58,0,0,0-.209.638c.121.5.252.989.366,1.487a2.165,2.165,0,0,1,.015.894,1.352,1.352,0,0,1-1.042,1.062,5.478,5.478,0,0,1-1.317.145l-.591.038a.46.46,0,0,0-.425.329c-.117.312-.229.626-.34.941a3.484,3.484,0,0,1-.59,1.135,1.254,1.254,0,0,1-1.416.414,3.607,3.607,0,0,1-1.041-.555c-.251-.176-.505-.347-.76-.518a.476.476,0,0,0-.573,0c-.3.206-.607.415-.911.623a2.89,2.89,0,0,1-1.029.482,1.209,1.209,0,0,1-1.192-.363,2.79,2.79,0,0,1-.586-1c-.127-.345-.257-.689-.366-1.04a.626.626,0,0,0-.669-.478c-.327,0-.654-.025-.981-.039a2.975,2.975,0,0,1-.744-.124,1.4,1.4,0,0,1-1.07-1.573,7.2,7.2,0,0,1,.278-1.317c.048-.184.093-.37.137-.555a.573.573,0,0,0-.2-.622c-.248-.2-.492-.41-.739-.614a3.521,3.521,0,0,1-.766-.817,1.4,1.4,0,0,1-.007-1.6,3.51,3.51,0,0,1,.778-.833c.236-.2.47-.394.709-.586a.6.6,0,0,0,.219-.672c-.124-.488-.25-.976-.362-1.467a2.219,2.219,0,0,1-.022-.854,1.3,1.3,0,0,1,.9-1.048,2.815,2.815,0,0,1,.879-.173c.347-.015.695-.036,1.042-.043A.592.592,0,0,0,5,2.466c.118-.355.247-.707.375-1.059A2.956,2.956,0,0,1,5.882.482,1.252,1.252,0,0,1,7.3.069,3.1,3.1,0,0,1,8.17.507c.275.189.553.374.822.572a.586.586,0,0,0,.768.008c.286-.209.581-.405.874-.605a2.754,2.754,0,0,1,.977-.449A1.21,1.21,0,0,1,12.8.4,2.793,2.793,0,0,1,13.4,1.413c.125.346.255.69.367,1.039a.608.608,0,0,0,.641.458c.334,0,.668.026,1,.041a3.019,3.019,0,0,1,.744.122,1.425,1.425,0,0,1,1.065,1.634m-4.56,2.919a.641.641,0,0,0-.23-.492.66.66,0,0,0-.935.082q-1.427,1.423-2.848,2.852c-.107.108-.16.112-.267,0C8,9.681,7.619,9.3,7.234,8.925a.652.652,0,1,0-.918.926q.856.866,1.722,1.722a.634.634,0,0,0,.933.009q1.75-1.737,3.488-3.485a.66.66,0,0,0,.2-.471" transform="translate(0 0)" fill="#13b263"/>
  </g>
</svg>
