<svg id="heart-line" xmlns="http://www.w3.org/2000/svg" width="19.388" height="17.491" viewBox="0 0 19.388 17.491">
  <path id="heart-line-2" data-name="heart-line" d="M11.7,21.057a.606.606,0,0,1-.37-.127,36.832,36.832,0,0,1-7.314-7.1c-2.072-2.842-2.545-5.466-1.406-7.8A4.933,4.933,0,0,1,8.479,3.8,5.981,5.981,0,0,1,11.7,6.084,5.981,5.981,0,0,1,14.915,3.8a4.951,4.951,0,0,1,5.872,2.236c1.139,2.333.667,4.957-1.406,7.8a36.832,36.832,0,0,1-7.314,7.1A.606.606,0,0,1,11.7,21.057Z" transform="translate(-2.003 -3.567)" fill="#0c73ff"/>
</svg>
