<svg id="heart-line" xmlns="http://www.w3.org/2000/svg" width="19.388" height="17.491" viewBox="0 0 19.388 17.491">
  <path id="heart-line-2" data-name="heart-line" d="M11.7,21.057a.606.606,0,0,1-.37-.127,36.832,36.832,0,0,1-7.314-7.1c-2.072-2.842-2.545-5.466-1.406-7.8A4.933,4.933,0,0,1,8.479,3.8,5.981,5.981,0,0,1,11.7,6.084,5.981,5.981,0,0,1,14.915,3.8a4.951,4.951,0,0,1,5.872,2.236c1.139,2.333.667,4.957-1.406,7.8a36.832,36.832,0,0,1-7.314,7.1A.606.606,0,0,1,11.7,21.057ZM6.928,4.787A3.575,3.575,0,0,0,3.7,6.562c-.939,1.927-.515,4.072,1.3,6.551a34.62,34.62,0,0,0,6.7,6.569,34.62,34.62,0,0,0,6.7-6.563c1.818-2.485,2.236-4.63,1.3-6.551a3.824,3.824,0,0,0-4.448-1.606,4.848,4.848,0,0,0-2.994,2.545.606.606,0,0,1-1.121,0A4.805,4.805,0,0,0,8.14,4.962a4.43,4.43,0,0,0-1.212-.176Z" transform="translate(-2.003 -3.567)" fill="#575757"/>
</svg>
