<svg id="Component_119_1" data-name="Component 119 – 1" xmlns="http://www.w3.org/2000/svg" xmlns:xlink="http://www.w3.org/1999/xlink" width="61.712" height="61" viewBox="0 0 61.712 61">
  <defs>
    <clipPath id="clip-path">
      <rect id="Rectangle_3975" data-name="Rectangle 3975" width="61.712" height="61" fill="#2f83f5"/>
    </clipPath>
  </defs>
  <g id="Group_36847" data-name="Group 36847" clip-path="url(#clip-path)">
    <path id="Path_40515" data-name="Path 40515" d="M0,230.707a25.546,25.546,0,0,1,.4-5.852,14.232,14.232,0,0,1,12.078-10.637c2.621-.275,5.255-.037,7.88-.123a14.819,14.819,0,0,1,7.469,1.418A13.838,13.838,0,0,1,35.7,227.067c.254,2.62.056,5.255.093,7.883a1.088,1.088,0,0,1-.811,1.05,46.289,46.289,0,0,1-9.351,2.813,41.444,41.444,0,0,1-12.111.485A46.322,46.322,0,0,1,.736,235.975,1.069,1.069,0,0,1,0,234.88c.007-1.325,0-2.65,0-4.173" transform="translate(0 -178.535)" fill="#2f83f5"/>
    <path id="Path_40516" data-name="Path 40516" d="M63.386,33.622a14.572,14.572,0,0,0,3.048-2.568.636.636,0,0,1,.487-.218,13.233,13.233,0,0,0,3.008-.4,11.553,11.553,0,0,1,2.89-.281q13.793.008,27.587,0c.853,0,.853,0,.853-.879q0-12.8,0-25.6a4.649,4.649,0,0,0-.071-.925.934.934,0,0,0-.852-.781,4.67,4.67,0,0,0-.619-.031q-23.237,0-46.475,0c-1.152,0-1.532.381-1.536,1.518a2.037,2.037,0,0,0,0,.31.745.745,0,0,1-.493.874,8.236,8.236,0,0,0-1.1.7c-.238.164-.378.175-.365-.169a17.7,17.7,0,0,1,.082-2.665,3.053,3.053,0,0,1,2.9-2.51C52.82,0,52.9,0,52.985,0Q76.471,0,99.957,0a3.084,3.084,0,0,1,3.125,2.249,3.869,3.869,0,0,1,.108,1.108q0,16.869,0,33.738a3.137,3.137,0,0,1-3.447,3.417q-11.4,0-22.8.013a1.2,1.2,0,0,1-1.065-.556A15.666,15.666,0,0,0,65.087,33.8c-.508-.064-1.018-.106-1.7-.176m13.074,3.459a1.7,1.7,0,1,0-1.68-1.7,1.667,1.667,0,0,0,1.68,1.7" transform="translate(-41.481 0)" fill="#2f83f5"/>
    <path id="Path_40517" data-name="Path 40517" d="M58.6,73.143c-2.273,2.847-5.768,3.761-8.79,1.663a14.034,14.034,0,0,1-4.722-6.179,1.549,1.549,0,0,0-.783-.865,3.394,3.394,0,0,1-1.681-2.813,4.859,4.859,0,0,1,.743-3.912,4.849,4.849,0,0,0,.849-1.8,10.1,10.1,0,0,1,6.146-7.152,8.718,8.718,0,0,1,10.192,3.337,11.56,11.56,0,0,1,2.022,4.553,1.219,1.219,0,0,0,.318.647,5.494,5.494,0,0,1,.192,6.553,1.917,1.917,0,0,1-.885.658.713.713,0,0,0-.573.57c-.053.288-.26.341-.5.37a7.871,7.871,0,0,1-3.248-.3c-.338-.1-.362-.317-.376-.606a4.068,4.068,0,0,0-3.99-3.957,4.126,4.126,0,1,0,.848,8.132,1.156,1.156,0,0,1,.933.1,10.321,10.321,0,0,0,3.3,1" transform="translate(-35.458 -42.982)" fill="#2f83f5"/>
    <path id="Path_40518" data-name="Path 40518" d="M39.346,44.261a10.975,10.975,0,0,1-.1,2.046,2.411,2.411,0,0,1-1.656,1.863c-1.436.4-2.761,1.092-4.21,1.448a13.757,13.757,0,0,1-6.926.194,7.165,7.165,0,0,1-1.995-.828.807.807,0,0,0-.891-.072,2.793,2.793,0,0,1-3.432-.893,2.912,2.912,0,0,1,3.517-4.383A2.793,2.793,0,0,1,25.262,46.8c-.089.395.108.466.338.591a8.1,8.1,0,0,0,4.642.79,16.062,16.062,0,0,0,3.334-.68c.38-.114.541-.207.295-.618a2.8,2.8,0,0,1-.351-1.55c.023-.848,0-1.7.006-2.547a2.85,2.85,0,0,1,1.491-2.612c.211-.123.362-.2.317-.5-.786-5.316-3.436-9.289-8.5-11.326-5.6-2.254-11.814-.047-15.189,5.21a15.639,15.639,0,0,0-2.234,6,.648.648,0,0,0,.388.784,2.443,2.443,0,0,1,1.351,2.157c.03,1.138.056,2.279,0,3.414a2.742,2.742,0,0,1-2.732,2.6,2.748,2.748,0,0,1-2.881-2.369,16.475,16.475,0,0,1,0-3.9A2.675,2.675,0,0,1,6.99,40.128a.823.823,0,0,0,.469-.708,15.973,15.973,0,0,1,6.5-11.213,14.337,14.337,0,0,1,20.181,3.345,16.221,16.221,0,0,1,3.1,7.866.682.682,0,0,0,.389.635,2.891,2.891,0,0,1,1.714,2.911c-.016.393,0,.787,0,1.3" transform="translate(-4.521 -21.217)" fill="#2f83f5"/>
    <path id="Path_40519" data-name="Path 40519" d="M217.11,255.364c1.268,0,2.526.009,3.785-.006.341,0,.344.242.4.444.266.933.558,1.861.764,2.807.113.517.347.634.841.619,1.22-.037,2.442-.015,3.664-.011.833,0,1.146.287,1.155,1.1q.022,2.08,0,4.161c-.007.785-.348,1.131-1.148,1.135-2.443.012-4.886-.008-7.329.016-.5,0-.525-.239-.515-.609a23.934,23.934,0,0,0-.339-5.685,15.753,15.753,0,0,0-1.094-3.347,1.053,1.053,0,0,1-.186-.621" transform="translate(-181.057 -212.958)" fill="#2f83f5"/>
    <path id="Path_40520" data-name="Path 40520" d="M235.746,49.375q-3.757,0-7.515,0c-.794,0-1.176-.307-1.189-.939-.013-.662.381-1.012,1.2-1.013q7.576-.008,15.153,0c.763,0,1.171.324,1.184.892.015.622-.495,1.059-1.256,1.06q-3.788,0-7.577,0" transform="translate(-189.344 -39.545)" fill="#2f83f5"/>
    <path id="Path_40521" data-name="Path 40521" d="M254.94,91.222c-1.926,0-3.852,0-5.778,0-.789,0-1.168-.317-1.178-.957-.01-.668.379-1,1.2-1.005q5.778-.005,11.557,0c.765,0,1.24.4,1.236,1.006,0,.628-.429.956-1.256.957q-2.889,0-5.778,0" transform="translate(-206.808 -74.436)" fill="#2f83f5"/>
    <path id="Path_40522" data-name="Path 40522" d="M264,133.741q-2.391,0-4.783,0a1.7,1.7,0,0,1-.792-.108.929.929,0,0,1-.606-.986.967.967,0,0,1,.865-.848,2.05,2.05,0,0,1,.31-.011q5.031,0,10.062,0c.5,0,.9.126,1.053.663.209.722-.263,1.279-1.141,1.286-1.656.014-3.313,0-4.969,0" transform="translate(-215.005 -109.905)" fill="#2f83f5"/>
  </g>
</svg>
