<svg xmlns="http://www.w3.org/2000/svg" width="13.685" height="13.685" viewBox="0 0 13.685 13.685">
  <g id="help" transform="translate(0.1 0.1)">
    <path id="Path_40315" data-name="Path 40315" d="M9.742,3a6.742,6.742,0,1,0,6.742,6.742A6.742,6.742,0,0,0,9.742,3Zm0,12.521a5.779,5.779,0,1,1,5.779-5.779,5.779,5.779,0,0,1-5.779,5.779Z" transform="translate(-3 -3)" fill="#4b4b4b" stroke="#4a4b4b" stroke-width="0.2"/>
    <circle id="Ellipse_147" data-name="Ellipse 147" cx="0.722" cy="0.722" r="0.722" transform="translate(6.02 9.632)" fill="#4b4b4b" stroke="#4a4b4b" stroke-width="0.2"/>
    <path id="Path_40316" data-name="Path 40316" d="M19.39,12h-.722A2.162,2.162,0,0,0,16.5,14.167v.241h.963v-.241a1.2,1.2,0,0,1,1.2-1.2h.722a1.2,1.2,0,0,1,0,2.408h-.963v2.167h.963v-1.2a2.167,2.167,0,1,0,0-4.334Z" transform="translate(-12.166 -9.11)" fill="#4b4b4b" stroke="#4a4b4b" stroke-width="0.2"/>
  </g>
</svg>
