<svg xmlns="http://www.w3.org/2000/svg" width="12.031" height="15.014" viewBox="0 0 12.031 15.014">
  <g id="privacy-policy" transform="translate(0.1 0.1)">
    <path id="Path_37540" data-name="Path 37540" d="M403.17,350.43l-1.73-.862h0a.492.492,0,0,0-.439,0l-1.725.862a.492.492,0,0,0-.275.439c0,3.9,2.116,3.952,2.222,3.952s2.222-.042,2.222-3.952a.492.492,0,0,0-.275-.439Zm-1.947,3.4c-.413,0-1.175-.619-1.243-2.645l1.243-.629,1.227.614C402.382,353.234,401.626,353.811,401.223,353.832Z" transform="translate(-391.615 -340.007)" fill="#4b4b4b" stroke="#4b4b4b" stroke-width="0.2"/>
    <path id="Path_37541" data-name="Path 37541" d="M165.039,35h-6.915a.489.489,0,0,0-.19.037.477.477,0,0,0-.058.042.482.482,0,0,0-.1.064l-2.963,2.963v.032h0a.444.444,0,0,0-.122.317v9.878a1.482,1.482,0,0,0,1.46,1.481h4.936a.495.495,0,1,0,0-.989h-4.936a.492.492,0,0,1-.492-.492v-9.38h2.471a.492.492,0,0,0,.492-.492V35.989h6.417a.492.492,0,0,1,.492.492v7.407a.495.495,0,1,0,.989,0V36.481A1.481,1.481,0,0,0,165.039,35Zm-8.677,2.963,1.27-1.28v1.28Z" transform="translate(-154.691 -35)" fill="#4b4b4b" stroke="#4b4b4b" stroke-width="0.2"/>
    <path id="Path_37542" data-name="Path 37542" d="M287.8,167.7a1.978,1.978,0,1,0-.579,1.394A1.973,1.973,0,0,0,287.8,167.7Zm-2.963,0a.989.989,0,1,1,.29.7A.99.99,0,0,1,284.838,167.7Z" transform="translate(-279.949 -161.775)" fill="#4b4b4b" stroke="#4b4b4b" stroke-width="0.2"/>
    <path id="Path_37543" data-name="Path 37543" d="M270.758,329.668a.492.492,0,0,0-.492-.492h-3.518a.495.495,0,1,0,0,.989h3.518a.492.492,0,0,0,.492-.5Z" transform="translate(-262.88 -320.283)" fill="#4b4b4b" stroke="#4b4b4b" stroke-width="0.2"/>
    <path id="Path_37544" data-name="Path 37544" d="M266.751,394.45a.495.495,0,1,0,0,.989h2.037a.495.495,0,0,0,0-.989Z" transform="translate(-262.883 -383.584)" fill="#4b4b4b" stroke="#4b4b4b" stroke-width="0.2"/>
  </g>
</svg>
