<svg id="Component_71_1" data-name="Component 71 – 1" xmlns="http://www.w3.org/2000/svg" width="22.452" height="22.452" viewBox="0 0 22.452 22.452">
  <path id="Path_40329" data-name="Path 40329" d="M11.226,0A11.226,11.226,0,1,1,0,11.226,11.226,11.226,0,0,1,11.226,0Z" fill="#2f83f5"/>
  <g id="cursor-fill" transform="translate(5.346 6.607)">
    <path id="Path_202" data-name="Path 202" d="M11.7,4.695a.389.389,0,0,1,.08.434L7.378,15.041a.389.389,0,0,1-.714-.006L5.075,11.324,1.362,9.734a.389.389,0,0,1,0-.713L11.27,4.615a.389.389,0,0,1,.433.08Z" transform="translate(-1.127 -4.581)" fill="#fff" fill-rule="evenodd"/>
  </g>
</svg>
