<svg id="Component_101_3" data-name="Component 101 – 3" xmlns="http://www.w3.org/2000/svg" xmlns:xlink="http://www.w3.org/1999/xlink" width="14.115" height="14.064" viewBox="0 0 14.115 14.064">
  <defs>
    <clipPath id="clip-path">
      <rect id="Rectangle_3948" data-name="Rectangle 3948" width="14.115" height="14.064" fill="#2f83f5"/>
    </clipPath>
  </defs>
  <g id="Group_6628" data-name="Group 6628">
    <g id="Group_6604" data-name="Group 6604" transform="translate(0 0)" clip-path="url(#clip-path)">
      <path id="Path_40375" data-name="Path 40375" d="M.294,11.886c-.157-.843.253-1.1,1.057-1.078,1.6.038,3.2.021,4.8,0,.385,0,.937.2,1.116-.178.2-.417-.362-.642-.623-.906C4.6,7.652,2.53,5.6.468,3.533c-.357-.357-.7-.7-.26-1.243.482-.591.8-.6,1.473.069Q5.025,5.688,8.352,9.035c1.571,1.582,3.189,3.118,4.665,4.793.338.383.6.683.109,1.143a.764.764,0,0,1-1.25-.033,1.931,1.931,0,0,1-.182-.182,4.548,4.548,0,0,0-4.482-1.837c-1.963.142-3.945.007-5.918.043-.79.014-1.128-.277-1-1.076" transform="translate(0 -1.215)" fill="#2f83f5"/>
      <path id="Path_40376" data-name="Path 40376" d="M32.246,2.22c0,.1.01.132,0,.154-.642,1.186-.085,1.968.768,2.806.9.884.643,2.132.62,3.268a.469.469,0,0,1-.478.5.493.493,0,0,1-.581-.485c-.048-.4-.094-.795-.14-1.192a2.516,2.516,0,0,0-1.921-2.358c-.347-.1-.659-.206-.687-.642a.926.926,0,0,1,.39-.882c.894-.694.915-1.4.067-2.093C29.9.989,29.636.635,29.945.218c.3-.4.724-.167,1.083.03A2.366,2.366,0,0,1,32.246,2.22" transform="translate(-19.569 0)" fill="#2f83f5"/>
      <path id="Path_40377" data-name="Path 40377" d="M20.654,6.094c.357-.014.59.023.672.287a.7.7,0,0,1-.246.839c-.271.2-.6.321-.713.7A1.157,1.157,0,0,0,21.5,9.5a4.6,4.6,0,0,1,2.085.339A2.291,2.291,0,0,1,24.8,12.505c-.065.25-.183.416-.445.444a.513.513,0,0,1-.615-.339,2.512,2.512,0,0,1-.128-.583,1.216,1.216,0,0,0-1.276-1.238,2.661,2.661,0,0,1-2.109-1.1,8.274,8.274,0,0,0-.667-.664c-.447-.409-.765-.838-.473-1.494a2.483,2.483,0,0,1,1.565-1.439" transform="translate(-12.457 -3.999)" fill="#2f83f5"/>
    </g>
  </g>
</svg>
