<svg id="Component_65_5" data-name="Component 65 – 5" xmlns="http://www.w3.org/2000/svg" width="22.622" height="23.78" viewBox="0 0 22.622 23.78">
  <g id="notification-solid-badged" transform="translate(0 -1)">
    <path id="Path_166" data-name="Path 166" d="M18,34.28A2.67,2.67,0,0,0,20.58,32H15.32A2.67,2.67,0,0,0,18,34.28Z" transform="translate(-6.855 -9.5)" fill="#fff"/>
    <path id="Path_167" data-name="Path 167" d="M24.672,20.293l-.247-.211A10.193,10.193,0,0,1,22.6,18.024a8.662,8.662,0,0,1-.98-3.38V11.173a7.437,7.437,0,0,0-.116-1.258,5.314,5.314,0,0,1-4.346-5.172V4.3a7.855,7.855,0,0,0-2.409-.7V2.713a.969.969,0,0,0-1.937,0v.92a7.679,7.679,0,0,0-6.748,7.539v3.471a8.661,8.661,0,0,1-.98,3.38A10.206,10.206,0,0,1,3.3,20.083l-.247.211v1.981H24.672Z" transform="translate(-3.05 -0.775)" fill="#fff"/>
  </g>
  <path id="Path_40314" data-name="Path 40314" d="M30.98,3.99A2.99,2.99,0,1,1,27.99,1a2.99,2.99,0,0,1,2.99,2.99Z" transform="translate(-8.358 -1)" fill="#ff5050"/>
</svg>
