<svg id="user-admin" xmlns="http://www.w3.org/2000/svg" width="13" height="18.2" viewBox="0 0 13 18.2">
  <path id="Path_174" data-name="Path 174" d="M10.175,3.55A3.25,3.25,0,1,1,6.925,6.8a3.25,3.25,0,0,1,3.25-3.25m0-1.3a4.55,4.55,0,1,0,4.55,4.55A4.55,4.55,0,0,0,10.175,2.25Z" transform="translate(-3.675 -2.25)" fill="#0c73ff"/>
  <path id="Path_175" data-name="Path 175" d="M15.25,28.05h-1.3V24.8a3.25,3.25,0,0,0-3.25-3.25H6.8A3.25,3.25,0,0,0,3.55,24.8v3.25H2.25V24.8A4.55,4.55,0,0,1,6.8,20.25h3.9a4.55,4.55,0,0,1,4.55,4.55Z" transform="translate(-2.25 -9.85)" fill="#0c73ff"/>
</svg>
