<svg xmlns="http://www.w3.org/2000/svg" width="14.168" height="14.04" viewBox="0 0 14.168 14.04">
  <g id="Group_6390" data-name="Group 6390" transform="translate(2262.811 -3926.967)">
    <g id="avatar-line" transform="translate(-2262.811 3926.967)">
      <path id="Path_176" data-name="Path 176" d="M14.276,9.552A3.276,3.276,0,1,0,11,6.276,3.276,3.276,0,0,0,14.276,9.552Z" transform="translate(-8.192 -3)" fill="#fff"/>
      <path id="Path_177" data-name="Path 177" d="M16.92,21.515a8.031,8.031,0,0,0-11.667,0A.936.936,0,0,0,5,22.156v2.462a.936.936,0,0,0,.936.936h10.3a.936.936,0,0,0,.936-.936V22.156A.936.936,0,0,0,16.92,21.515Z" transform="translate(-5 -11.514)" fill="#fff"/>
    </g>
    <g id="location-sharp" transform="translate(-2261.807 3927.838)" fill="#fff">
      <path d="M 8.957160949707031 9.916666984558105 L 8.217221260070801 9.102726936340332 C 7.964691162109375 8.824947357177734 5.750000953674316 6.328387260437012 5.750000953674316 4.236447334289551 C 5.750000953674316 2.589717388153076 7.188730716705322 1.24999737739563 8.957160949707031 1.24999737739563 C 10.72559070587158 1.24999737739563 12.16432094573975 2.589717388153076 12.16432094573975 4.236447334289551 C 12.16432094573975 6.328387260437012 9.949630737304688 8.824947357177734 9.697100639343262 9.102726936340332 L 8.957160949707031 9.916666984558105 Z" stroke="none"/>
      <path d="M 8.957160949707031 2.249997138977051 C 7.738611221313477 2.249997138977051 6.750000953674316 3.139927387237549 6.750000953674316 4.236447334289551 C 6.750000953674316 6.002177238464355 8.957160949707031 8.430057525634766 8.957160949707031 8.430057525634766 C 8.957160949707031 8.430057525634766 11.16432094573975 6.002177238464355 11.16432094573975 4.236447334289551 C 11.16432094573975 3.139927387237549 10.17571067810059 2.249997138977051 8.957160949707031 2.249997138977051 M 8.957160949707031 5.340027332305908 C 8.469571113586426 5.340027332305908 8.074300765991211 4.944757461547852 8.074300765991211 4.457157135009766 C 8.074300765991211 3.96956729888916 8.469571113586426 3.574297428131104 8.957160949707031 3.574297428131104 C 9.444750785827637 3.574297428131104 9.840030670166016 3.96956729888916 9.840030670166016 4.457157135009766 C 9.839481353759766 4.944527149200439 9.444530487060547 5.339487552642822 8.957160949707031 5.340027332305908 M 8.957160949707031 0.2499971389770508 C 11.27700042724609 0.2499971389770508 13.16432094573975 2.038307189941406 13.16432094573975 4.236447334289551 C 13.16432094573975 5.386517524719238 12.69346046447754 6.651867389678955 11.72484111785889 8.10479736328125 C 11.10761070251465 9.030637741088867 10.50385093688965 9.701907157897949 10.43704032897949 9.775397300720215 L 8.957160949707031 11.40327739715576 L 7.477280616760254 9.775397300720215 C 7.410470962524414 9.701907157897949 6.806711196899414 9.030637741088867 6.189480781555176 8.10479736328125 C 5.220860481262207 6.651867389678955 4.750000953674316 5.386517524719238 4.750000953674316 4.236447334289551 C 4.750000953674316 2.038307189941406 6.637320518493652 0.2499971389770508 8.957160949707031 0.2499971389770508 Z" stroke="none" fill="#0c73ff"/>
    </g>
  </g>
</svg>