<svg id="user-admin" xmlns="http://www.w3.org/2000/svg" width="9.654" height="13.515" viewBox="0 0 9.654 13.515">
  <path id="Path_174" data-name="Path 174" d="M9,3.215A2.413,2.413,0,1,1,6.59,5.629,2.413,2.413,0,0,1,9,3.215M9,2.25a3.379,3.379,0,1,0,3.379,3.379A3.379,3.379,0,0,0,9,2.25Z" transform="translate(-4.177 -2.25)"/>
  <path id="Path_175" data-name="Path 175" d="M11.9,26.042h-.965V23.629a2.413,2.413,0,0,0-2.413-2.413h-2.9a2.413,2.413,0,0,0-2.413,2.413v2.413H2.25V23.629A3.379,3.379,0,0,1,5.629,20.25h2.9A3.379,3.379,0,0,1,11.9,23.629Z" transform="translate(-2.25 -12.527)"/>
</svg>
