<svg id="map" xmlns="http://www.w3.org/2000/svg" width="11.223" height="11.223" viewBox="0 0 11.223 11.223">
  <path id="Path_196" data-name="Path 196" d="M12.324,10.59,9.784,7.33a2.866,2.866,0,0,1-.5-3.271,3.424,3.424,0,0,1,3.04-1.809A3.222,3.222,0,0,1,15.66,5.332a2.936,2.936,0,0,1-.751,1.945Zm0-7.582a2.419,2.419,0,0,0-2.5,2.324,2.225,2.225,0,0,0,.621,1.516l1.881,2.423L14.255,6.8a2.236,2.236,0,0,0,.571-1.467,2.419,2.419,0,0,0-2.5-2.324Z" transform="translate(-6.712 -2.25)" fill="#0c73ff"/>
  <path id="Path_197" data-name="Path 197" d="M17.266,8.633a.758.758,0,1,1-.758-.758A.758.758,0,0,1,17.266,8.633Z" transform="translate(-10.897 -5.853)" fill="#0c73ff"/>
  <path id="Path_198" data-name="Path 198" d="M12.671,13.5h-.8v.758h.8v5.307H3.052V14.258h.8V13.5h-.8a.781.781,0,0,0-.8.758v5.307a.781.781,0,0,0,.8.758h9.62a.781.781,0,0,0,.8-.758V14.258A.781.781,0,0,0,12.671,13.5Z" transform="translate(-2.25 -9.101)" fill="#0c73ff"/>
</svg>
