<svg id="avatar-line" xmlns="http://www.w3.org/2000/svg" width="15.687" height="18.1" viewBox="0 0 15.687 18.1">
  <path id="Path_176" data-name="Path 176" d="M15.223,11.447A4.223,4.223,0,1,0,11,7.223,4.223,4.223,0,0,0,15.223,11.447Zm0-7.24a3.017,3.017,0,1,1-3.017,3.017A3.017,3.017,0,0,1,15.223,4.207Z" transform="translate(-7.38 -3)" fill="#575757"/>
  <path id="Path_177" data-name="Path 177" d="M20.367,22.241a10.353,10.353,0,0,0-15.041,0A1.207,1.207,0,0,0,5,23.068v3.174a1.207,1.207,0,0,0,1.207,1.207H19.48a1.207,1.207,0,0,0,1.207-1.207V23.068A1.207,1.207,0,0,0,20.367,22.241Zm-.887,4H6.207v-3.18a9.153,9.153,0,0,1,13.273,0Z" transform="translate(-5 -9.348)" fill="#575757"/>
</svg>
