<svg id="Component_103_1" data-name="Component 103 – 1" xmlns="http://www.w3.org/2000/svg" xmlns:xlink="http://www.w3.org/1999/xlink" width="15.397" height="18.524" viewBox="0 0 15.397 18.524">
  <defs>
    <clipPath id="clip-path">
      <rect id="Rectangle_2688" data-name="Rectangle 2688" width="15.397" height="18.524" fill="#4b4b4b"/>
    </clipPath>
  </defs>
  <g id="Group_192" data-name="Group 192" clip-path="url(#clip-path)">
    <path id="Path_40" data-name="Path 40" d="M4.613,25.972H1.63A1.5,1.5,0,0,1,0,24.344v-.573c0-.447,0-.895,0-1.342.01-2.372,1.742-3.868,4.521-3.9,2.128-.027,4.267-.027,6.358,0,2.772.036,4.5,1.525,4.515,3.886,0,.667,0,1.334,0,2a1.5,1.5,0,0,1-1.486,1.556h0a.6.6,0,0,1,0-1.2c.256,0,.3-.229.3-.364,0-.665,0-1.328,0-1.992-.013-2.4-2.337-2.685-3.336-2.7-2.08-.027-4.209-.028-6.327,0-1,.013-3.331.3-3.341,2.712,0,.445,0,.89,0,1.336v.574c0,.36.074.433.435.433h8.821a.6.6,0,1,1,0,1.2Z" transform="translate(0 -7.448)" fill="#4b4b4b"/>
    <path id="Path_41" data-name="Path 41" d="M9.494,1.2A3.839,3.839,0,0,1,13.33,5.019,3.84,3.84,0,1,1,9.492,1.2Zm0-1.2a5.032,5.032,0,0,0-.019,10.064h.008A5.032,5.032,0,1,0,9.494,0Z" transform="translate(-1.792 0)" fill="#4b4b4b"/>
  </g>
</svg>
