<svg xmlns="http://www.w3.org/2000/svg" width="11.914" height="11.844" viewBox="0 0 11.914 11.844">
  <g id="arrow-counter-clockwise" transform="translate(0.578 0.506)">
    <g id="Group_6510" data-name="Group 6510">
      <path id="Path_40345" data-name="Path 40345" d="M8.532,13.861a5.354,5.354,0,0,0,2.341,2.394,5.178,5.178,0,0,0,3.272.5,5.251,5.251,0,0,0,2.923-1.589A5.472,5.472,0,0,0,18.5,12.11a5.529,5.529,0,0,0-.624-3.328,5.339,5.339,0,0,0-2.433-2.3A5.173,5.173,0,0,0,12.15,6.12,4.936,4.936,0,0,0,9.387,7.778a4.586,4.586,0,0,0-.73,1.072" transform="translate(-7.707 -6.001)" fill="none" stroke="#fff" stroke-linecap="round" stroke-linejoin="round" stroke-width="1"/>
      <path id="Path_40346" data-name="Path 40346" d="M9.867,9.934l-3.286.591L6,7.18" transform="translate(-6 -6.796)" fill="none" stroke="#fff" stroke-linecap="round" stroke-linejoin="round" stroke-width="1"/>
    </g>
  </g>
</svg>
