<svg id="location" xmlns="http://www.w3.org/2000/svg" width="11.786" height="15" viewBox="0 0 11.786 15">
  <path id="Path_40316" data-name="Path 40316" d="M19.179,17.357a2.679,2.679,0,1,1,2.679-2.679A2.679,2.679,0,0,1,19.179,17.357Zm0-4.286a1.607,1.607,0,1,0,1.607,1.607A1.607,1.607,0,0,0,19.179,13.071Z" transform="translate(-13.286 -8.786)" fill="#0c73ff" stroke="#0c73ff" stroke-width="0.5"/>
  <path id="Path_40317" data-name="Path 40317" d="M13.393,18,8.874,12.67q-.094-.12-.186-.242A5.833,5.833,0,0,1,7.5,8.893a5.893,5.893,0,1,1,11.786,0A5.831,5.831,0,0,1,18.1,12.427v0s-.161.211-.185.239ZM9.542,11.783s.125.165.154.2l3.7,4.36,3.7-4.366c.024-.029.149-.2.149-.2a4.768,4.768,0,0,0,.97-2.889,4.821,4.821,0,1,0-9.643,0,4.771,4.771,0,0,0,.971,2.89Z" transform="translate(-7.5 -3)" fill="#0c73ff"/>
</svg>
