<svg id="Component_124_1" data-name="Component 124 – 1" xmlns="http://www.w3.org/2000/svg" xmlns:xlink="http://www.w3.org/1999/xlink" width="12.829" height="21.5" viewBox="0 0 12.829 21.5">
  <defs>
    <clipPath id="clip-path">
      <rect id="Rectangle_38" data-name="Rectangle 38" width="12.829" height="21.5" transform="translate(-1 -1)" fill="#575757" stroke="#575757" stroke-width="0.25"/>
    </clipPath>
  </defs>
  <g id="Group_151" data-name="Group 151" transform="translate(1 1)" clip-path="url(#clip-path)">
    <path id="Path_181" data-name="Path 181" d="M27.648,371.875a.376.376,0,0,1-.155-.382.315.315,0,0,1,.342-.24c.392,0,.784,0,1.176,0,.177,0,.331.027.4.217a.344.344,0,0,1-.162.407Z" transform="translate(-26.084 -352.375)" fill="#575757" stroke="#575757" stroke-width="0.25"/>
    <path id="Path_182" data-name="Path 182" d="M147.119,371.875a.344.344,0,0,1-.163-.407c.067-.19.22-.219.4-.217.36,0,.721,0,1.081,0,.171,0,.336,0,.418.188a.362.362,0,0,1-.136.436Z" transform="translate(-139.465 -352.375)" fill="#575757" stroke="#575757" stroke-width="0.25"/>
    <path id="Path_183" data-name="Path 183" d="M.661,11.8q0,2.787,0,5.575c0,.488.189.675.681.675H9.486c.479,0,.67-.19.67-.667q0-4.719,0-9.437a1.526,1.526,0,0,1,.006-.228.322.322,0,0,1,.637-.032,1.091,1.091,0,0,1,.017.227q0,4.738,0,9.475a1.231,1.231,0,0,1-1.334,1.325H1.339A1.235,1.235,0,0,1,0,17.367Q0,11.783,0,6.2A1.231,1.231,0,0,1,1.334,4.851c.767-.007,1.535,0,2.3,0,.316,0,.316,0,.316-.307q0-2.036,0-4.072c0-.38.091-.47.472-.47H6.441c.314,0,.423.108.423.423q0,2.083,0,4.167c0,.255,0,.256.252.256H9.476a1.236,1.236,0,0,1,1.178.629,2.166,2.166,0,0,1,.132,1.339.3.3,0,0,1-.337.243.307.307,0,0,1-.287-.3c-.012-.215,0-.431-.006-.647a.55.55,0,0,0-.589-.6q-4.157,0-8.315,0a.551.551,0,0,0-.59.618q0,2.835,0,5.67M4.614,3.174c0,.488,0,.975,0,1.462,0,.152.044.218.205.215q.589-.011,1.178,0c.155,0,.212-.052.211-.209q-.007-1.462,0-2.925c0-.154-.045-.213-.205-.209-.392.009-.785.011-1.177,0-.174,0-.214.064-.212.223.008.481,0,.962,0,1.443M5.4.636c-.215,0-.429,0-.644,0-.088,0-.148.023-.144.127s.065.111.142.111H6.047c.083,0,.153-.01.154-.118s-.068-.12-.152-.12c-.215,0-.429,0-.644,0" transform="translate(0 0)" fill="#575757" stroke="#575757" stroke-width="0.25"/>
    <path id="Path_184" data-name="Path 184" d="M120.4,120.532q0,2.73,0,5.461c0,.328-.12.5-.337.5s-.324-.177-.324-.494q0-5.451,0-10.9a.768.768,0,0,1,.026-.263.321.321,0,0,1,.622.032,1.159,1.159,0,0,1,.013.246q0,2.711,0,5.423" transform="translate(-113.648 -108.778)" fill="#575757"/>
    <path id="Path_185" data-name="Path 185" d="M79.992,118.991q0-1.95,0-3.9a1.051,1.051,0,0,1,.012-.227.321.321,0,0,1,.622-.034.708.708,0,0,1,.027.244q0,3.909,0,7.819c0,.025,0,.051,0,.076-.008.236-.136.394-.323.4s-.337-.158-.337-.4q0-1.988,0-3.976" transform="translate(-75.925 -108.777)" fill="#575757"/>
    <path id="Path_186" data-name="Path 186" d="M40.257,189.8q0-1.827,0-3.653a.973.973,0,0,1,.01-.208.317.317,0,0,1,.617-.031.915.915,0,0,1,.03.263q0,3.634,0,7.268a1.147,1.147,0,0,1-.027.264.292.292,0,0,1-.318.244.306.306,0,0,1-.307-.284,1.563,1.563,0,0,1-.005-.209q0-1.827,0-3.653" transform="translate(-38.21 -176.241)" fill="#575757"/>
    <path id="Path_187" data-name="Path 187" d="M160.178,117.927q0,1.416,0,2.832a1.5,1.5,0,0,1-.005.19.315.315,0,0,1-.3.29.307.307,0,0,1-.323-.241,1.037,1.037,0,0,1-.027-.263q0-2.813,0-5.626a1.048,1.048,0,0,1,.026-.263.3.3,0,0,1,.319-.242.312.312,0,0,1,.306.283,1.413,1.413,0,0,1,.005.19q0,1.425,0,2.851" transform="translate(-151.408 -108.776)" fill="#575757"/>
    <path id="Path_188" data-name="Path 188" d="M160.175,255.432q0,1.007,0,2.014a.412.412,0,0,1-.062.272.313.313,0,0,1-.316.133.292.292,0,0,1-.25-.231,1.469,1.469,0,0,1-.029-.3q0-1.9,0-3.8a1.353,1.353,0,0,1,.01-.189c.031-.221.154-.331.35-.319a.317.317,0,0,1,.3.351c0,.184,0,.367,0,.551q0,.76,0,1.52" transform="translate(-151.406 -240.145)" fill="#575757"/>
    <path id="Path_189" data-name="Path 189" d="M40.923,116.21c0,.361,0,.723,0,1.084a1.085,1.085,0,0,1-.025.245.308.308,0,0,1-.334.249.312.312,0,0,1-.295-.3,1.007,1.007,0,0,1,0-.133q0-1.16,0-2.32a.939.939,0,0,1,0-.133.3.3,0,0,1,.3-.292.3.3,0,0,1,.333.249,1.939,1.939,0,0,1,.023.492c0,.285,0,.57,0,.856" transform="translate(-38.217 -108.784)" fill="#575757"/>
    <path id="Path_190" data-name="Path 190" d="M79.981,295.863c0-.317,0-.634,0-.95,0-.239.129-.4.315-.4s.341.148.342.4q.008.979,0,1.958a.349.349,0,0,1-.336.384c-.188-.005-.319-.163-.322-.4,0-.329,0-.659,0-.988" transform="translate(-75.914 -279.536)" fill="#575757"/>
  </g>
</svg>
